<?xml version="1.0" standalone="no"?><!DOCTYPE svg PUBLIC "-//W3C//DTD SVG 1.1//EN" "http://www.w3.org/Graphics/SVG/1.1/DTD/svg11.dtd"><svg t="1565078337644" class="icon" viewBox="0 0 1024 1024" version="1.1" xmlns="http://www.w3.org/2000/svg" p-id="5970" xmlns:xlink="http://www.w3.org/1999/xlink" width="16" height="16"><defs><style type="text/css"></style></defs><path d="M731.314 787.344v-72.61c143.3-24.394 249.92-71.798 282.12-128.776a73.227 73.227 0 0 1 10.022 36.25c0 72.887-119.415 135.794-292.142 165.136z m0-219.832V495.01c143.3-24.331 249.92-71.756 282.12-128.777a73.249 73.249 0 0 1 10.022 36.251c0 72.78-119.415 135.686-292.142 165.007zM971 269.485a385.243 385.243 0 0 1-112.379 51.882 1371.404 1371.404 0 0 1-692.654 0 386.502 386.502 0 0 1-112.442-51.903C10.236 237.925 1.194 205 1.194 182.93s9.042-55.017 52.309-86.555a386.246 386.246 0 0 1 112.442-51.882 1370.21 1370.21 0 0 1 692.675 0 385.798 385.798 0 0 1 112.379 51.882c43.288 31.538 52.244 64.484 52.244 86.555s-8.956 55.038-52.244 86.555zM928.137 155.57a321.825 321.825 0 0 0-91.054-41.177 1300.522 1300.522 0 0 0-649.664 0A321.015 321.015 0 0 0 96.47 155.57a27.913 27.913 0 0 0 0 54.654 320.311 320.311 0 0 0 90.969 41.177 1301.332 1301.332 0 0 0 649.621 0 322.422 322.422 0 0 0 91.055-41.177 27.956 27.956 0 0 0 0.021-54.654zM293.208 494.989v72.502C120.013 538.213 0.235 475.242 0.235 402.271a73.142 73.142 0 0 1 10.107-36.251c32.243 57.234 139.162 104.723 282.866 128.969z m0 219.767v72.502C120.013 758.044 0.235 695.01 0.235 622.038a73.142 73.142 0 0 1 10.107-36.25c32.243 57.255 139.162 104.744 282.866 129.032z m47.447-301.418a36.38 36.38 0 0 1 51.178-0.384l120.482 120.674 120.268-120.674a36.678 36.678 0 0 1 62.48 25.888 36.912 36.912 0 0 1-10.875 25.888l-83.804 84.145h58.002a36.592 36.592 0 0 1 0 73.163H548.779v72.055h109.607a36.592 36.592 0 0 1 0 73.185H548.779v110.736a36.464 36.464 0 1 1-72.929 0V767.278H366.244a36.592 36.592 0 0 1 0-73.185H475.85v-72.055H366.244a36.592 36.592 0 0 1 0-73.163h58.002l-84.018-84.167a36.72 36.72 0 0 1 0.427-51.306zM511.888 951.37c247.788 0 454.42-62.885 501.546-146.391a73.249 73.249 0 0 1 10.022 36.251c0 100.949-229.022 182.77-511.568 182.77S0.235 942.179 0.235 841.251a73.249 73.249 0 0 1 10.107-36.25c47.148 83.548 253.78 146.433 501.546 146.433z" p-id="5971" fill="#8a8a8a"></path></svg>