<?xml version="1.0" standalone="no"?><!DOCTYPE svg PUBLIC "-//W3C//DTD SVG 1.1//EN" "http://www.w3.org/Graphics/SVG/1.1/DTD/svg11.dtd"><svg t="1569402999409" class="icon" viewBox="0 0 1024 1024" version="1.1" xmlns="http://www.w3.org/2000/svg" p-id="2557" xmlns:xlink="http://www.w3.org/1999/xlink" width="18" height="18"><defs><style type="text/css"></style></defs><path d="M741.871 609.915c12.96 10.307 33.702 5.152 44.072-10.307 5.185-7.731 5.185-15.46 5.185-23.191-2.593-7.73-7.78-15.463-12.961-20.612-18.147-10.306-36.296-23.191-57.035-30.92 25.923-25.768 46.663-54.11 59.629-87.608 15.552-36.074 23.33-74.725 23.33-115.953 0-159.758-129.62-288.596-290.353-288.596-160.734 0-287.765 131.414-287.765 291.171 0 77.303 31.11 149.45 85.551 203.562C143.016 604.76 34.133 772.25 34.133 957.773c0 18.037 12.964 30.92 31.109 30.92 18.146 0 31.109-12.883 31.109-30.92 0-172.638 108.882-327.244 269.615-386.507 90.738 54.108 207.395 51.533 295.54 0 28.515 10.308 57.034 23.188 80.365 38.65z m-228.133-61.84c-124.438 0-225.546-100.494-225.546-224.177S389.3 99.725 513.738 99.725c124.435 0 225.54 100.492 225.54 224.173 0 30.919-5.182 61.841-18.145 90.185-10.369 25.768-28.518 48.957-49.258 69.57-41.476 41.23-98.516 64.422-158.137 64.422z m443.287 238.972H854.6V684.619c0-18.856-15.285-34.14-34.14-34.14-18.859 0-34.144 15.284-34.144 34.14v102.428H683.892c-18.856 0-34.142 15.284-34.142 34.14s15.286 34.142 34.142 34.142h102.425v102.426c0 18.856 15.285 34.142 34.143 34.142 18.856 0 34.14-15.286 34.14-34.142V855.329h102.426c18.857 0 34.142-15.285 34.142-34.141s-15.285-34.141-34.143-34.141z" fill="#8a8a8a" p-id="2558"></path></svg>