<?xml version="1.0" standalone="no"?><!DOCTYPE svg PUBLIC "-//W3C//DTD SVG 1.1//EN" "http://www.w3.org/Graphics/SVG/1.1/DTD/svg11.dtd"><svg t="1569747777683" class="icon" viewBox="0 0 1024 1024" version="1.1" xmlns="http://www.w3.org/2000/svg" p-id="22783" xmlns:xlink="http://www.w3.org/1999/xlink" width="30" height="30"><defs><style type="text/css"></style></defs><path d="M198.115662 196.040908c156.338674-35.763528 319.743278-30.479175 473.968825 15.844873 9.129938 2.724041 20.999266-2.731204 23.788799-11.129478 2.788509-8.414647-3.919263-19.902282-13.480013-22.75526-160.193469-48.113811-329.897545-53.600779-492.261447-16.454764-3.000334-12.935614-5.984295-25.87839-8.975419-38.814004-1.218758-5.218862-3.463891-9.69071-9.642614-10.356882-6.170536-0.650823-9.942443 1.446955-13.340843 6.219655-15.85306 22.227234-30.503734 44.828998-43.966351 67.689658-3.935636 6.706749-1.252527 14.683421 5.756097 17.878183 23.935132 10.974959 46.950312 22.86987 68.99949 35.58445 4.731768 2.731204 8.454556 2.982938 12.93459-0.187265 4.471848-3.171226 4.414543-8.105608 3.211135-13.341866C202.773751 216.163201 200.43959 206.106148 198.115662 196.040908zM842.634838 455.469496c-7.382131-20.146852-28.545126-33.682124-52.674687-33.682124-6.9022 0-13.577227 1.146103-19.820418 3.405563-3.390213 1.227967-11.618619 5.5279-19.488867 11.488659-10.016121-21.975501-32.275077-36.430724-56.787354-36.430724-7.268544 0-14.430664 1.25969-21.316491 3.747347-13.488199 4.886287-24.63405 14.024411-31.975249 26.081005-15.487739-19.641339-41.186028-27.845185-65.122183-19.195178-15.633049 5.65786-27.804253 17.007349-34.292014 31.951713l-62.104453-152.461367c-10.007935-27.341718-33.568537-45.007053-59.998489-45.007053-7.163143 0-14.374382 1.292436-21.414729 3.836375-33.398668 12.097526-48.771797 48.024783-35.658128 83.83743l103.234199 264.231987c-5.4225 6.096858-13.227256 16.487509-22.007223 33.079396-30.390147 57.46376-8.919137 162.087609 70.478168 220.3475 56.772005 41.642422 109.103884 61.039191 164.706249 61.039191 32.57593 0 66.502623-6.535857 103.655801-19.983123 105.658412-38.234813 121.698736-103.721293 129.073704-167.517271C918.234653 662.8558 845.733409 463.908702 842.634838 455.469496zM884.593462 721.205743c-6.959505 60.063981-20.154016 112.478747-111.673405 145.590889-34.202986 12.382005-65.113997 18.398022-94.526887 18.398022-50.300616 0-96.203062-17.22736-148.84398-55.861262-47.412846-34.779108-95.41307-124.778888-62.697971-186.623421 3.52836-6.675026 6.7968-12.089339 9.682523-16.423041l33.730219 86.291318c2.65855 6.837732 10.398838 10.218736 17.284665 7.569396 6.870478-2.651386 10.277064-10.341532 7.617491-17.179264L386.98217 323.698357c-8.064676-22.031782 0.064468-42.405809 19.780509-49.544393 19.455097-7.023974 39.381939 3.967358 47.365774 25.739221l93.624331 229.818199c2.552126 6.308683 9.512654 9.682523 16.114003 7.764847 6.576789-1.90335 10.626012-8.447393 9.389858-15.145955l-7.349385-39.723723c-0.147356-0.723477-0.333598-1.438769-0.593518-2.137687-3.358491-9.154497-3.219321-18.772552 0.364297-27.073612 3.52836-8.194636 10.236132-14.430664 18.910699-17.559934 17.349133-6.285147 34.568307 3.447519 41.593304 22.617114l9.146311 24.943089c2.51938 6.885827 10.187013 10.438747 17.105586 7.934716s10.504238-10.121522 7.974625-17.008372l-0.016373-0.064468c-3.226484-8.861832-2.795673-18.455327 1.203408-27.00812 4.016477-8.569166 11.162224-15.065114 20.081361-18.300808 3.942799-1.422396 8.048303-2.146896 12.186554-2.146896 14.918781 0 28.357861 9.374508 33.471322 23.301705 0 0 17.99177 44.479027 21.935592 54.064336 3.949962 9.586332 10.210549 11.105942 16.885576 8.618285 6.674003-2.487657 9.05626-9.325389 6.048763-17.73185-2.991124-8.398274-11.609409-31.738865-11.609409-31.738865 4.120854-4.252861 12.770861-11.040451 18.690688-13.179161 3.300162-1.194198 6.878664-1.795902 10.67513-1.795902 12.739139 0 24.081465 6.674003 27.584242 16.211217C837.992097 520.411577 889.894188 675.393347 884.593462 721.205743z" p-id="22784" fill="#1296db"></path></svg>