<?xml version="1.0" standalone="no"?><!DOCTYPE svg PUBLIC "-//W3C//DTD SVG 1.1//EN" "http://www.w3.org/Graphics/SVG/1.1/DTD/svg11.dtd"><svg t="1567147361721" class="icon" viewBox="0 0 1024 1024" version="1.1" xmlns="http://www.w3.org/2000/svg" p-id="1892" xmlns:xlink="http://www.w3.org/1999/xlink" width="26" height="26"><defs><style type="text/css"></style></defs><path d="M512 0C229.2 0 0 229.2 0 512s229.2 512 512 512 512-229.2 512-512S794.8 0 512 0z m274.8 665.7c0 37.7-30.8 68.3-68.7 68.3H305.9c-37.9 0-68.7-30.6-68.7-68.3V392.5c0-37.8 30.8-68.3 68.7-68.3h34.4v-17.1c0-9.5 7.7-17.1 17.2-17.1s17.2 7.6 17.2 17.1v17.1h274.8v-17.1c0-9.5 7.7-17.1 17.2-17.1s17.2 7.6 17.2 17.1v17.1h34.4c37.9 0 68.7 30.6 68.7 68.3v273.2z m-515.3 0c0 18.8 15.4 34.2 34.4 34.2h412.3c19 0 34.4-15.3 34.4-34.2V460.8h-481v204.9z m309.2-102.5V512c0-9.5 7.7-17.1 17.2-17.1H649.5c19 0 34.4 15.3 34.4 34.2v34.2c0 18.9-15.4 34.2-34.4 34.2h-34.4v17.1c0 9.4-7.7 17.1-17.2 17.1s-17.2-7.7-17.2-17.1v-51.4zM512 512c0-9.5 7.7-17.1 17.2-17.1s17.2 7.6 17.2 17.1v102.5c0 9.4-7.7 17.1-17.2 17.1s-17.2-7.7-17.2-17.1V512z m-162.1-15.1c8.5-4.3 18.6-1.4 22.6 6.5l36.5 71.2 36.4-71.2c4-7.9 14.1-10.8 22.6-6.5 8.5 4.3 12 14.1 8 21.9L432.4 604c-4 7.9-13.8 27.4-23.4 27.4-9.7 0-19.4-19.5-23.4-27.4l-43.7-85.2c-4-7.8-0.4-17.6 8-21.9z m290.9 66.3H615V529h25.8c4.8 0 8.6 7.6 8.6 17.1 0 9.5-3.8 17.1-8.6 17.1z m111.7-170.7v34.2h-481v-34.2c0-18.8 15.4-34.2 34.4-34.2h34.4v17.1c0 9.4 7.7 17.1 17.2 17.1s17.2-7.7 17.2-17.1v-17.1h274.8v17.1c0 9.4 7.7 17.1 17.2 17.1s17.2-7.7 17.2-17.1v-17.1h34.4c18.8 0 34.2 15.4 34.2 34.2z" fill="#8a8a8a" p-id="1893"></path></svg>