<?xml version="1.0" standalone="no"?><!DOCTYPE svg PUBLIC "-//W3C//DTD SVG 1.1//EN" "http://www.w3.org/Graphics/SVG/1.1/DTD/svg11.dtd"><svg t="1565078415173" class="icon" viewBox="0 0 1024 1024" version="1.1" xmlns="http://www.w3.org/2000/svg" p-id="10140" xmlns:xlink="http://www.w3.org/1999/xlink" width="16" height="16"><defs><style type="text/css"></style></defs><path d="M344.118432 568.134485 176.236863 568.134485c-61.813834 0-111.921046 50.107211-111.921046 111.921046l0 167.881568c0 61.813834 50.107211 111.921046 111.921046 111.921046l167.881568 0c61.813834 0 111.921046-50.107211 111.921046-111.921046L456.039477 680.05553C456.038454 618.241696 405.932266 568.134485 344.118432 568.134485zM344.118432 847.936075 176.236863 847.936075 176.236863 680.05553l167.881568 0L344.118432 847.936075zM344.118432 64.48978 176.236863 64.48978c-61.813834 0-111.921046 50.107211-111.921046 111.921046l0 167.881568c0 61.813834 50.107211 111.921046 111.921046 111.921046l167.881568 0c61.813834 0 111.921046-50.107211 111.921046-111.921046L456.039477 176.410825C456.038454 114.596991 405.932266 64.48978 344.118432 64.48978zM344.118432 344.292394 176.236863 344.292394 176.236863 176.410825l167.881568 0L344.118432 344.292394zM847.762113 568.134485 679.880545 568.134485c-61.813834 0-111.921046 50.107211-111.921046 111.921046l0 167.881568c0 61.813834 50.107211 111.921046 111.921046 111.921046L847.762113 959.858144c61.813834 0 111.921046-50.107211 111.921046-111.921046L959.683159 680.05553C959.683159 618.241696 909.575948 568.134485 847.762113 568.134485zM847.762113 847.936075 679.880545 847.936075 679.880545 680.05553 847.762113 680.05553 847.762113 847.936075 847.762113 847.936075zM847.762113 64.48978 679.880545 64.48978c-61.813834 0-111.921046 50.107211-111.921046 111.921046l0 167.881568c0 61.813834 50.107211 111.921046 111.921046 111.921046L847.762113 456.213439c61.813834 0 111.921046-50.107211 111.921046-111.921046L959.683159 176.410825C959.683159 114.596991 909.575948 64.48978 847.762113 64.48978zM847.762113 344.292394 679.880545 344.292394 679.880545 176.410825 847.762113 176.410825 847.762113 344.292394 847.762113 344.292394z" p-id="10141" fill="#8a8a8a"></path></svg>