<?xml version="1.0" standalone="no"?><!DOCTYPE svg PUBLIC "-//W3C//DTD SVG 1.1//EN" "http://www.w3.org/Graphics/SVG/1.1/DTD/svg11.dtd"><svg t="1558877639952" class="icon" style="" viewBox="0 0 1024 1024" version="1.1" xmlns="http://www.w3.org/2000/svg" p-id="2411" xmlns:xlink="http://www.w3.org/1999/xlink" width="22" height="22"><defs><style type="text/css"></style></defs><path d="M956.881346 335.574848M721.937406 959.752744c-131.257439 0-237.662865-106.440218-237.662865-237.663888 0-131.281999 106.404402-237.662865 237.662865-237.662865s237.662865 106.380866 237.662865 237.662865C959.599248 853.313549 853.194846 959.752744 721.937406 959.752744L721.937406 959.752744zM721.937406 540.347628c-100.375082 0-181.743274 81.372286-181.743274 181.742251 0 100.370988 81.368192 181.738158 181.743274 181.738158 100.369965 0 181.742251-81.367169 181.742251-181.738158C903.678634 621.719914 822.306348 540.347628 721.937406 540.347628L721.937406 540.347628zM833.776587 764.028037 693.976588 764.028037c-7.726985 0-13.982456-6.28003-13.982456-13.978363L679.994132 722.088856 679.994132 610.249675c0-7.729032 6.254447-13.983479 13.982456-13.983479l27.960819 0c7.726985 0 13.982456 6.254447 13.982456 13.983479l0 97.856725 97.857748 0c7.726985 0 13.977339 6.254447 13.977339 13.982456l0 27.960819C847.753927 757.753123 841.499479 764.028037 833.776587 764.028037L833.776587 764.028037zM819.794132 148.907425c0-15.456017-12.528338-27.960819-27.958772-27.960819L148.753929 120.946606c-15.440667 0-27.960819 12.504802-27.960819 27.960819l0 726.959793c0 15.432481 12.519128 27.960819 27.960819 27.960819l279.599999 0 0 55.92573L120.79311 959.753767c-30.881334 0-55.919591-25.067932-55.919591-55.92573l0-782.880407c0-30.906917 25.038256-55.919591 55.919591-55.919591l699.001021 0c30.883381 0 55.92573 25.007557 55.92573 55.919591l0 251.641227-55.92573 0L819.794132 148.907425 819.794132 148.907425zM274.575566 680.146605l111.840204 0c7.713682 0 13.978363 6.249331 13.978363 13.983479l0 27.958772c0 7.699356-6.264681 13.978363-13.978363 13.978363L274.575566 736.067218c-7.726985 0-13.982456-6.277984-13.982456-13.978363l0-27.958772C260.594133 686.396959 266.848581 680.146605 274.575566 680.146605L274.575566 680.146605zM260.594133 330.648652l0-27.958772c0-7.728008 6.254447-13.983479 13.982456-13.983479l419.401022 0c7.728008 0 13.978363 6.254447 13.978363 13.983479l0 27.958772c0 7.698333-6.249331 13.978363-13.978363 13.978363L274.575566 344.627015C266.848581 344.627015 260.594133 338.346985 260.594133 330.648652L260.594133 330.648652zM260.594133 526.369266l0-27.958772c0-7.728008 6.254447-13.983479 13.982456-13.983479l195.720613 0c7.713682 0 13.978363 6.254447 13.978363 13.983479l0 27.958772c0 7.698333-6.264681 13.978363-13.978363 13.978363L274.575566 540.347628C266.848581 540.347628 260.594133 534.067598 260.594133 526.369266L260.594133 526.369266zM260.594133 526.369266" p-id="2412" fill="#8a8a8a"></path></svg>