<?xml version="1.0" standalone="no"?><!DOCTYPE svg PUBLIC "-//W3C//DTD SVG 1.1//EN" "http://www.w3.org/Graphics/SVG/1.1/DTD/svg11.dtd"><svg t="1565078980221" class="icon" viewBox="0 0 1024 1024" version="1.1" xmlns="http://www.w3.org/2000/svg" p-id="11925" xmlns:xlink="http://www.w3.org/1999/xlink" width="20" height="20"><defs><style type="text/css"></style></defs><path d="M83.01056 160.96256C244.7872 159.47776 385.46944 101.7856 515.5072 13.6704c196.3008 115.7888 248.10496 133.37088 435.72736 148.95104 0 8.87296 0 18.01728 0 27.15648 0 117.67296-2.6624 235.42784 0.80384 352.9984 3.03616 102.92224-31.28832 190.4128-94.85312 268.23168-68.99712 84.45952-151.64416 151.38304-253.4656 193.26976-58.25024 23.9616-115.87584 24.54016-173.70112-0.3584-135.5008-58.3424-239.5136-151.74656-309.99552-281.37984-26.04032-47.88736-37.43232-99.9936-37.18656-154.89536 0.5632-126.19776 0.1792-252.40064 0.1792-378.60352C83.01056 180.70528 83.01056 172.37504 83.01056 160.96256zM894.03392 216.1408c-8.01792-2.0736-13.60896-4.34176-19.36384-4.88448-123.136-11.60704-233.92256-58.25024-338.82624-120.63744-14.98112-8.9088-24.72448-7.79264-38.84544 0.62976C392.82688 153.37984 282.6496 199.3728 160.384 210.30912c-19.3536 1.73056-20.41344 12.37504-20.36224 27.53024 0.3584 111.69792 0.50688 223.40608 0.06144 335.104-0.19968 49.95584 12.8 96.11776 37.79584 138.80832 62.16704 106.19904 150.4512 183.68 261.2224 236.51328 52.8896 25.22624 104.74496 24.61184 157.39392-0.54272 104.10496-49.74592 188.19072-122.2144 250.5472-219.35616 32.55296-50.71872 48.22528-106.05056 47.39584-166.99904-1.4336-104.86272-0.39424-209.75616-0.39424-314.63936C894.03392 236.66688 894.03392 226.59584 894.03392 216.1408z" p-id="11926" fill="#8a8a8a"></path><path d="M462.94528 574.58176c77.48096-75.02848 148.95616-144.24064 222.11584-215.08608 13.35808 12.50816 26.14272 24.4736 40.72448 38.12864-86.1184 83.54816-170.9056 165.80096-257.4336 249.74336-45.01504-49.65376-89.32864-98.52928-133.64224-147.4048-3.34336 3.02592-6.69184 6.05184-10.0352 9.07776 12.38016-12.45184 24.76032-24.90368 44.12416-44.37504C400.49152 501.66272 431.36 537.70752 462.94528 574.58176z" p-id="11927" fill="#8a8a8a"></path></svg>